# xmcd CD database file
#
# Track frame offsets:
#	150
#	23785
#	62460
#	88695
#	123804
#	179596
#	217773
#
# Disc length: 3212 seconds
#
# Revision: 1
# Processed by: cddbd v1.5.2PL0 Copyright (c) Steve Scherf et al.
# Submitted via: CDex 1.51
#
DISCID=520c8a07
DTITLE=Paatos - Timeloss
DYEAR=2002
DGENRE=Progressive Rock
TTITLE0=Sensor
TTITLE1=Hypnotique
TTITLE2=Tea
TTITLE3=They Are Beautiful
TTITLE4=Quits
TTITLE5=Ouka
TTITLE6=Otaku
EXTD=YEAR: 2002
EXTT0=
EXTT1=
EXTT2=
EXTT3=
EXTT4=
EXTT5=
EXTT6=
PLAYORDER=
